<?xml version="1.0" encoding="UTF-8"?>
<svg version="1.1" xmlns="http://www.w3.org/2000/svg" width="500" height="500">
<path d="M0 0 C1.42983215 -0.01073296 1.42983215 -0.01073296 2.8885498 -0.02168274 C3.93275085 -0.02437164 4.9769519 -0.02706055 6.05279541 -0.02983093 C7.70444702 -0.03968773 7.70444702 -0.03968773 9.38946533 -0.04974365 C13.04058904 -0.06948632 16.69167161 -0.08114129 20.34283447 -0.09111023 C21.5890583 -0.09518576 22.83528214 -0.09926128 24.11927032 -0.10346031 C30.03474807 -0.12217316 35.95021272 -0.13673809 41.86571288 -0.14507228 C48.68476048 -0.15483909 55.50348298 -0.1811459 62.32241607 -0.22157317 C68.23573251 -0.25542309 74.1489697 -0.2672215 80.06238556 -0.27127647 C82.57418269 -0.27614915 85.08597617 -0.28778238 87.59770966 -0.30631447 C91.11425171 -0.33064799 94.62994503 -0.32975094 98.14654541 -0.32279968 C99.18264954 -0.33560974 100.21875366 -0.3484198 101.28625488 -0.36161804 C107.49952525 -0.31688628 111.35496489 0.3476074 116.35845947 4.14717102 C118.40154575 7.30289703 118.61449944 9.84287534 118.63261414 13.56108093 C118.64258926 14.66016281 118.65256439 15.75924469 118.6628418 16.89163208 C118.66350647 18.09277145 118.66417114 19.29391083 118.66485596 20.53144836 C118.67317947 21.80011246 118.68150299 23.06877655 118.69007874 24.37588501 C118.71200653 27.8532217 118.72082021 31.33047047 118.72590518 34.80786848 C118.72955061 36.98155348 118.73579162 39.15521552 118.74290657 41.32889175 C118.76739453 48.91546387 118.78045166 56.50196766 118.78399658 64.08857727 C118.78763199 71.15511352 118.81752892 78.22121548 118.85940117 85.28761899 C118.89411392 91.35909586 118.90954518 97.43042885 118.91024262 103.50200427 C118.91103507 107.12631322 118.91975839 110.75017961 118.94824028 114.37438583 C118.97930786 118.4179364 118.97035683 122.46045413 118.95782471 126.50410461 C118.98007614 128.29974098 118.98007614 128.29974098 119.0027771 130.13165283 C118.92281697 139.17885871 118.92281697 139.17885871 116.07099915 142.81236267 C112.23530238 146.11392427 109.65738237 147.39411344 104.5899353 147.41459656 C103.63389404 147.42312653 102.67785278 147.43165649 101.69284058 147.44044495 C100.65066376 147.43953857 99.60848694 147.4386322 98.534729 147.43769836 C97.43187561 147.44441559 96.32902222 147.45113281 95.19274902 147.45805359 C91.54221101 147.47707193 87.89185646 147.48095972 84.24127197 147.48310852 C81.70545373 147.48953364 79.16963625 147.49626179 76.63381958 147.50328064 C71.31593813 147.51526293 65.99812516 147.51904607 60.68023682 147.51777649 C54.54077945 147.51657532 48.40167377 147.5376737 42.26230538 147.56926382 C36.34843292 147.59860525 30.43466752 147.60575159 24.52071762 147.60455704 C22.00810179 147.6069181 19.4954834 147.6157699 16.98291397 147.63122177 C13.46863855 147.65081043 9.95526892 147.64507086 6.440979 147.63301086 C4.88378647 147.64986938 4.88378647 147.64986938 3.2951355 147.66706848 C-2.49577884 147.61655292 -6.17841439 147.22977595 -10.64154053 143.14717102 C-13.20404726 139.53398344 -14.01920785 137.06925343 -14.04267883 132.65769958 C-14.05547379 131.56710236 -14.06826874 130.47650513 -14.08145142 129.3528595 C-14.08009186 128.16623718 -14.0787323 126.97961487 -14.07733154 125.7570343 C-14.08740738 124.49958405 -14.09748322 123.24213379 -14.10786438 121.94657898 C-14.13431637 118.50432207 -14.14139576 115.06228901 -14.14331174 111.61994028 C-14.14544709 109.46716783 -14.15185725 107.31445195 -14.15980339 105.16169357 C-14.18754082 97.6452601 -14.19981092 90.12898601 -14.19744873 82.61250305 C-14.19564674 75.61573349 -14.22729944 68.61965809 -14.27467972 61.62306416 C-14.31395836 55.60758403 -14.32999828 49.59233031 -14.3280825 43.57672298 C-14.32731905 39.98754187 -14.33578688 36.39897797 -14.36761665 32.80992508 C-14.40216797 28.80483598 -14.38838956 24.8012941 -14.37030029 20.7960968 C-14.38715881 19.61352295 -14.40401733 18.4309491 -14.42138672 17.21253967 C-14.34808544 10.82673393 -13.78443569 6.96927501 -9.22138882 2.33138847 C-6.27984673 0.12647709 -3.53641692 0.01823417 0 0 Z M9.35845947 26.14717102 C9.35845947 27.13717102 9.35845947 28.12717102 9.35845947 29.14717102 C37.73845947 29.14717102 66.11845947 29.14717102 95.35845947 29.14717102 C95.35845947 28.15717102 95.35845947 27.16717102 95.35845947 26.14717102 C66.97845947 26.14717102 38.59845947 26.14717102 9.35845947 26.14717102 Z M9.35845947 44.14717102 C9.35845947 45.13717102 9.35845947 46.12717102 9.35845947 47.14717102 C37.73845947 47.14717102 66.11845947 47.14717102 95.35845947 47.14717102 C95.35845947 46.15717102 95.35845947 45.16717102 95.35845947 44.14717102 C66.97845947 44.14717102 38.59845947 44.14717102 9.35845947 44.14717102 Z M9.35845947 62.14717102 C9.35845947 63.13717102 9.35845947 64.12717102 9.35845947 65.14717102 C37.73845947 65.14717102 66.11845947 65.14717102 95.35845947 65.14717102 C95.35845947 64.15717102 95.35845947 63.16717102 95.35845947 62.14717102 C66.97845947 62.14717102 38.59845947 62.14717102 9.35845947 62.14717102 Z " fill="#2CB67A" transform="translate(197.64154052734375,177.8528289794922)"/>
<path d="M0 0 C1.73443359 0.00773438 1.73443359 0.00773438 3.50390625 0.015625 C4.65761719 0.01046875 5.81132812 0.0053125 7 0 C10.06640625 0.265625 10.06640625 0.265625 13.06640625 2.265625 C13.40698242 4.32861328 13.40698242 4.32861328 13.359375 6.8359375 C13.34487305 8.17978516 13.34487305 8.17978516 13.33007812 9.55078125 C13.30494141 10.48792969 13.27980469 11.42507813 13.25390625 12.390625 C13.23360352 13.80794922 13.23360352 13.80794922 13.21289062 15.25390625 C13.17746931 17.59171279 13.12807896 19.92838737 13.06640625 22.265625 C13.95948486 22.24991455 13.95948486 22.24991455 14.87060547 22.23388672 C17.56082968 22.19238551 20.25098662 22.16631796 22.94140625 22.140625 C23.87855469 22.12386719 24.81570313 22.10710937 25.78125 22.08984375 C27.12509766 22.08017578 27.12509766 22.08017578 28.49609375 22.0703125 C29.32351074 22.05983887 30.15092773 22.04936523 31.00341797 22.03857422 C33.06640625 22.265625 33.06640625 22.265625 35.06640625 24.265625 C35.26489696 26.81097641 35.344924 29.22279259 35.31640625 31.765625 C35.32800781 32.80009766 35.32800781 32.80009766 35.33984375 33.85546875 C35.31973918 39.01229207 35.31973918 39.01229207 33.06640625 41.265625 C31.00341797 41.49267578 31.00341797 41.49267578 28.49609375 41.4609375 C27.60019531 41.45449219 26.70429688 41.44804687 25.78125 41.44140625 C24.84410156 41.42464844 23.90695312 41.40789062 22.94140625 41.390625 C21.99652344 41.38160156 21.05164063 41.37257813 20.078125 41.36328125 C17.74063333 41.33967022 15.40364502 41.30674016 13.06640625 41.265625 C13.07164307 41.86624756 13.07687988 42.46687012 13.08227539 43.08569336 C13.10298639 45.79149338 13.1160475 48.49727677 13.12890625 51.203125 C13.13728516 52.14865234 13.14566406 53.09417969 13.15429688 54.06835938 C13.15751953 54.96748047 13.16074219 55.86660156 13.1640625 56.79296875 C13.16929932 57.62562256 13.17453613 58.45827637 13.17993164 59.31616211 C13.06640625 61.265625 13.06640625 61.265625 12.06640625 62.265625 C9.38909245 62.36543714 6.7433645 62.40442375 4.06640625 62.390625 C2.94105469 62.39642578 2.94105469 62.39642578 1.79296875 62.40234375 C-3.80698322 62.39223553 -3.80698322 62.39223553 -4.93359375 61.265625 C-5.02028807 59.7769064 -5.04062869 58.28418 -5.03125 56.79296875 C-5.02802734 55.89384766 -5.02480469 54.99472656 -5.02148438 54.06835938 C-5.01310547 53.12283203 -5.00472656 52.17730469 -4.99609375 51.203125 C-4.99158203 50.25373047 -4.98707031 49.30433594 -4.98242188 48.32617188 C-4.97059485 45.97259435 -4.954114 43.61914023 -4.93359375 41.265625 C-5.81881714 41.28133545 -5.81881714 41.28133545 -6.72192383 41.29736328 C-9.39660379 41.33894544 -12.07121572 41.3649579 -14.74609375 41.390625 C-15.67486328 41.40738281 -16.60363281 41.42414063 -17.56054688 41.44140625 C-18.89956055 41.45107422 -18.89956055 41.45107422 -20.265625 41.4609375 C-21.08780518 41.47141113 -21.90998535 41.48188477 -22.75708008 41.49267578 C-24.93359375 41.265625 -24.93359375 41.265625 -27.93359375 39.265625 C-28.296875 36.078125 -28.296875 36.078125 -28.24609375 32.265625 C-28.24222656 31.0075 -28.23835937 29.749375 -28.234375 28.453125 C-27.93359375 25.265625 -27.93359375 25.265625 -25.93359375 23.265625 C-23.77880859 23.03857422 -23.77880859 23.03857422 -21.14453125 23.0703125 C-20.20351562 23.07675781 -19.2625 23.08320313 -18.29296875 23.08984375 C-17.308125 23.10660156 -16.32328125 23.12335938 -15.30859375 23.140625 C-14.31601563 23.14964844 -13.3234375 23.15867187 -12.30078125 23.16796875 C-9.84481241 23.19158384 -7.38932207 23.22451701 -4.93359375 23.265625 C-4.94406738 22.63994629 -4.95454102 22.01426758 -4.96533203 21.36962891 C-5.00682566 18.5433349 -5.03289848 15.71710489 -5.05859375 12.890625 C-5.08373047 11.41335938 -5.08373047 11.41335938 -5.109375 9.90625 C-5.11582031 8.96523438 -5.12226563 8.02421875 -5.12890625 7.0546875 C-5.13937988 6.18537598 -5.14985352 5.31606445 -5.16064453 4.42041016 C-4.78152611 0.82245401 -3.4586319 0.31316507 0 0 Z " fill="#CFF0E4" transform="translate(245.93359375,250.734375)"/>
<path d="M0 0 C1.28309052 -0.00503792 1.28309052 -0.00503792 2.59210205 -0.01017761 C5.42860351 -0.0197014 8.26504604 -0.02163132 11.1015625 -0.02270508 C13.06689478 -0.02591625 15.03222682 -0.02928021 16.99755859 -0.03279114 C21.12012283 -0.03878569 25.24266609 -0.04063066 29.36523438 -0.04003906 C34.6584109 -0.03993733 39.95145362 -0.05360001 45.24459839 -0.07081127 C49.30396142 -0.08190602 53.36329182 -0.08395906 57.42266846 -0.08342934 C59.3747809 -0.08461287 61.3268941 -0.0890554 63.2789917 -0.0967617 C66.00379943 -0.10651245 68.72831296 -0.10370333 71.453125 -0.09765625 C72.26565735 -0.10327576 73.0781897 -0.10889526 73.91534424 -0.11468506 C79.49824591 -0.08305292 79.49824591 -0.08305292 81.7265625 2.14526367 C81.7265625 3.13526367 81.7265625 4.12526367 81.7265625 5.14526367 C81.0665625 5.14526367 80.4065625 5.14526367 79.7265625 5.14526367 C79.7265625 5.80526367 79.7265625 6.46526367 79.7265625 7.14526367 C51.0165625 7.14526367 22.3065625 7.14526367 -7.2734375 7.14526367 C-7.2734375 6.48526367 -7.2734375 5.82526367 -7.2734375 5.14526367 C-8.2634375 4.81526367 -9.2534375 4.48526367 -10.2734375 4.14526367 C-10.2734375 3.15526367 -10.2734375 2.16526367 -10.2734375 1.14526367 C-7.05299318 -0.46495849 -3.53789092 -0.00197324 0 0 Z M-7.2734375 2.14526367 C-7.2734375 3.13526367 -7.2734375 4.12526367 -7.2734375 5.14526367 C21.1065625 5.14526367 49.4865625 5.14526367 78.7265625 5.14526367 C78.7265625 4.15526367 78.7265625 3.16526367 78.7265625 2.14526367 C50.3465625 2.14526367 21.9665625 2.14526367 -7.2734375 2.14526367 Z " fill="#85D0AF" transform="translate(214.2734375,219.854736328125)"/>
<path d="M0 0 C29.04 0 58.08 0 88 0 C88.495 1.485 88.495 1.485 89 3 C88.34 4.32 87.68 5.64 87 7 C57.96 7 28.92 7 -1 7 C-0.67 4.69 -0.34 2.38 0 0 Z M1 3 C1 3.99 1 4.98 1 6 C29.38 6 57.76 6 87 6 C87 5.01 87 4.02 87 3 C58.62 3 30.24 3 1 3 Z " fill="#86D1B3" transform="translate(206,201)"/>
<path d="M0 0 C0.96333755 -0.00137466 1.92667511 -0.00274933 2.91920471 -0.00416565 C4.50200226 0.00122726 4.50200226 0.00122726 6.11677551 0.00672913 C7.22912064 0.0065831 8.34146576 0.00643707 9.48751831 0.00628662 C13.17230667 0.00698452 16.85704478 0.01477121 20.54182434 0.02259827 C23.09344454 0.02446288 25.6450651 0.02588658 28.19668579 0.02688599 C34.23147682 0.03031689 40.2662462 0.03820221 46.30102855 0.04823548 C53.17158157 0.05941047 60.04213545 0.06491056 66.91269529 0.06993091 C81.04559208 0.08038518 95.17847285 0.09797599 109.31135559 0.12025452 C109.31135559 0.45025452 109.31135559 0.78025452 109.31135559 1.12025452 C108.73543639 1.11987749 108.15951719 1.11950047 107.5661459 1.11911201 C93.5352345 1.11198653 79.50470848 1.13796734 65.47392941 1.20053291 C58.68861814 1.22999623 51.90361942 1.24836473 45.11824036 1.2403717 C38.56928993 1.23268864 32.02088228 1.25624534 25.47206306 1.29880905 C22.97426855 1.30994633 20.47640477 1.31063494 17.97860527 1.30067825 C14.47800636 1.28851332 10.97949632 1.31357678 7.4790802 1.3473053 C5.93188042 1.32897392 5.93188042 1.32897392 4.35342407 1.31027222 C-1.52507292 1.4122569 -5.25291119 2.16931543 -9.45706177 6.46017838 C-11.40715924 9.08875576 -11.61539513 10.83470463 -11.68864441 14.12025452 C-11.71533266 14.94889385 -11.74202091 15.77753319 -11.7695179 16.63128281 C-11.85393816 19.816236 -11.87785216 22.99819706 -11.89396667 26.18421936 C-11.90386627 27.39453827 -11.91376587 28.60485718 -11.92396545 29.85185242 C-11.9500733 33.15717146 -11.97196804 36.46246739 -11.99196744 39.7678256 C-12.01390219 43.22717548 -12.04125409 46.6864825 -12.06802368 50.14579773 C-12.11784965 56.69044516 -12.16282573 63.23511652 -12.20604604 69.77981055 C-12.25550495 77.23328235 -12.31039087 84.68671112 -12.36572564 92.14014125 C-12.4793906 107.46680587 -12.58626308 122.79351012 -12.68864441 138.12025452 C-13.01864441 138.12025452 -13.34864441 138.12025452 -13.68864441 138.12025452 C-13.82891879 121.29134379 -13.93466605 104.46261597 -13.99951744 87.63325405 C-14.03043195 79.81874464 -14.07256567 72.00459886 -14.14128113 64.19032288 C-14.20115778 57.37793212 -14.23981107 50.56580475 -14.25317538 43.75315815 C-14.26098548 40.14705197 -14.27928838 36.54169916 -14.32302475 32.93583488 C-14.37150058 28.90639464 -14.37257904 24.87825701 -14.36979675 20.848526 C-14.39136841 19.65809692 -14.41294006 18.46766785 -14.43516541 17.24116516 C-14.38726273 10.83247104 -13.85770559 6.95421425 -9.2701664 2.30168247 C-6.30361554 0.08561077 -3.56064986 -0.00391711 0 0 Z " fill="#75C6A5" transform="translate(197.6886444091797,177.87974548339844)"/>
<path d="M0 0 C9.57 0 19.14 0 29 0 C30 5 30 5 29 7 C0.29 6.34 -28.42 5.68 -58 5 C-58 4.67 -58 4.34 -58 4 C-29.62 4 -1.24 4 28 4 C28 3.01 28 2.02 28 1 C18.76 1 9.52 1 0 1 C0 0.67 0 0.34 0 0 Z " fill="#77CDA0" transform="translate(265,239)"/>
<path d="M0 0 C2.35433721 0.94173488 3.7270981 1.57586136 5.11778069 3.73723221 C6.17687346 6.45365543 6.24609381 8.53903169 6.24050903 11.45428467 C6.24325836 12.56203751 6.24600769 13.66979034 6.24884033 14.81111145 C6.24164978 16.02167709 6.23445923 17.23224274 6.22705078 18.47949219 C6.22734283 19.75779404 6.22763489 21.03609589 6.22793579 22.35313416 C6.22850951 25.85490803 6.21675207 29.35654483 6.20278788 32.85828686 C6.19028379 36.51914462 6.18911027 40.18000553 6.18673706 43.84088135 C6.18052134 50.77168324 6.16410929 57.70242201 6.14403808 64.63319612 C6.12168193 72.52430277 6.11068637 80.41541244 6.10064721 88.30654287 C6.07974314 104.53773219 6.04456538 120.76885804 6 137 C5.67 137 5.34 137 5 137 C4.99668985 136.35008496 4.99337971 135.70016993 4.98996925 135.03056049 C4.90873862 119.21456941 4.81664599 103.39868449 4.71247292 87.58282948 C4.6623573 79.93439037 4.61591427 72.28596193 4.578125 64.63745117 C4.54517744 57.97078517 4.50533096 51.30420216 4.45720994 44.63762778 C4.43197239 41.10793304 4.41018305 37.57829315 4.39665604 34.04853249 C4.38142375 30.1075318 4.35078872 26.16673253 4.31884766 22.22583008 C4.31668747 21.05626266 4.31452728 19.88669525 4.31230164 18.6816864 C4.30113815 17.60621552 4.28997467 16.53074463 4.2784729 15.42268372 C4.27017676 14.02478466 4.27017676 14.02478466 4.26171303 12.59864521 C3.85919226 8.60186799 2.84740706 5.84740706 0 3 C0 2.01 0 1.02 0 0 Z " fill="#62B697" transform="translate(310,180)"/>
<path d="M0 0 C0.99 0.99 0.99 0.99 2 2 C-0.41879984 5.28265693 -2.18717726 7.49782475 -6 9 C-8.27257156 9.24609566 -8.27257156 9.24609566 -10.80889893 9.24050903 C-11.77361115 9.24325836 -12.73832336 9.24600769 -13.73226929 9.24884033 C-15.30967392 9.2380545 -15.30967392 9.2380545 -16.91894531 9.22705078 C-18.03143646 9.22734283 -19.14392761 9.22763489 -20.29013062 9.22793579 C-23.96954125 9.22654177 -27.64874971 9.21097693 -31.328125 9.1953125 C-33.87831512 9.19158263 -36.42850667 9.18873554 -38.97869873 9.18673706 C-45.00640371 9.17987941 -51.03402183 9.16411435 -57.061692 9.14403808 C-63.92500548 9.12167527 -70.78832245 9.11068469 -77.6516633 9.10064721 C-91.76781574 9.07974798 -105.88390389 9.04457439 -120 9 C-118 7 -118 7 -116.02037621 6.76952171 C-115.20366762 6.77873964 -114.38695904 6.78795757 -113.54550171 6.79745483 C-112.14042107 6.80595207 -112.14042107 6.80595207 -110.70695496 6.81462097 C-109.67621353 6.83116226 -108.64547211 6.84770355 -107.58349609 6.86474609 C-106.50055771 6.87420761 -105.41761932 6.88366913 -104.30186462 6.89341736 C-100.70888755 6.92719666 -97.11624837 6.9752844 -93.5234375 7.0234375 C-91.0376576 7.04959412 -88.5518682 7.07486196 -86.06607056 7.09927368 C-80.18344154 7.15919807 -74.30097113 7.22811132 -68.41849387 7.30134451 C-61.06555007 7.39233616 -53.71247185 7.46943456 -46.359375 7.546875 C-33.23944424 7.68673712 -20.11968758 7.83900509 -7 8 C-7 7.34 -7 6.68 -7 6 C-5.68 6 -4.36 6 -3 6 C-3 5.01 -3 4.02 -3 3 C-2.01 3 -1.02 3 0 3 C0 2.01 0 1.02 0 0 Z " fill="#59A886" transform="translate(313,316)"/>
<path d="M0 0 C1.15628906 0.00515625 2.31257812 0.0103125 3.50390625 0.015625 C4.65761719 0.01046875 5.81132812 0.0053125 7 0 C10.06640625 0.265625 10.06640625 0.265625 13.06640625 2.265625 C13.40698242 4.32861328 13.40698242 4.32861328 13.359375 6.8359375 C13.34813599 8.04660889 13.34813599 8.04660889 13.33666992 9.28173828 C13.30935791 10.3076709 13.2820459 11.33360352 13.25390625 12.390625 C13.19203125 15.649375 13.13015625 18.908125 13.06640625 22.265625 C19.66640625 22.265625 26.26640625 22.265625 33.06640625 22.265625 C33.06640625 22.595625 33.06640625 22.925625 33.06640625 23.265625 C26.13640625 23.265625 19.20640625 23.265625 12.06640625 23.265625 C11.57140625 13.365625 11.57140625 13.365625 11.06640625 3.265625 C7.10640625 2.935625 3.14640625 2.605625 -0.93359375 2.265625 C-2.75248836 6.81286151 -3.3396125 10.31072076 -3.55859375 15.078125 C-3.59726563 15.77099609 -3.6359375 16.46386719 -3.67578125 17.17773438 C-3.76932943 18.87329515 -3.85251739 20.56942212 -3.93359375 22.265625 C-4.26359375 22.265625 -4.59359375 22.265625 -4.93359375 22.265625 C-4.99149728 18.97403184 -5.02715636 15.68256897 -5.05859375 12.390625 C-5.07535156 11.45347656 -5.09210938 10.51632812 -5.109375 9.55078125 C-5.11904297 8.20693359 -5.11904297 8.20693359 -5.12890625 6.8359375 C-5.13937988 6.00852051 -5.14985352 5.18110352 -5.16064453 4.32861328 C-4.77047791 0.78355096 -3.38643357 0.30662781 0 0 Z " fill="#94E2C1" transform="translate(245.93359375,250.734375)"/>
<path d="M0 0 C2.48044315 3.72066472 2.44381173 6.86540474 2.625 11.1875 C2.66367188 11.93708984 2.70234375 12.68667969 2.7421875 13.45898438 C2.83628216 15.30559199 2.91922319 17.1527619 3 19 C6.96 19 10.92 19 15 19 C15.33 12.73 15.66 6.46 16 0 C16.66 0 17.32 0 18 0 C18.02888146 3.31248187 18.04675799 6.62493167 18.0625 9.9375 C18.07087891 10.88302734 18.07925781 11.82855469 18.08789062 12.80273438 C18.09272461 14.15141602 18.09272461 14.15141602 18.09765625 15.52734375 C18.10551147 16.77632446 18.10551147 16.77632446 18.11352539 18.05053711 C18 20 18 20 17 21 C14.3226862 21.09981214 11.67695825 21.13879875 9 21.125 C7.87464844 21.13080078 7.87464844 21.13080078 6.7265625 21.13671875 C1.12661053 21.12661053 1.12661053 21.12661053 0 20 C-0.08669432 18.5112814 -0.10703494 17.018555 -0.09765625 15.52734375 C-0.09443359 14.62822266 -0.09121094 13.72910156 -0.08789062 12.80273438 C-0.07951172 11.85720703 -0.07113281 10.91167969 -0.0625 9.9375 C-0.05798828 8.98810547 -0.05347656 8.03871094 -0.04882812 7.06054688 C-0.0370011 4.70696935 -0.02052025 2.35351523 0 0 Z " fill="#AFEED3" transform="translate(241,292)"/>
<path d="M0 0 C3.47914941 -0.02887814 6.95826831 -0.04675687 10.4375 -0.0625 C11.92733398 -0.07506836 11.92733398 -0.07506836 13.44726562 -0.08789062 C14.39150391 -0.09111328 15.33574219 -0.09433594 16.30859375 -0.09765625 C17.62041626 -0.10551147 17.62041626 -0.10551147 18.95874023 -0.11352539 C21 0 21 0 22 1 C22.12653198 3.49238569 22.18519825 5.94470441 22.1875 8.4375 C22.19974609 9.13166016 22.21199219 9.82582031 22.22460938 10.54101562 C22.22989842 12.36220901 22.12169207 14.1828692 22 16 C20 18 20 18 17.93701172 18.22705078 C16.69588623 18.21134033 16.69588623 18.21134033 15.4296875 18.1953125 C14.53378906 18.18886719 13.63789063 18.18242187 12.71484375 18.17578125 C11.77769531 18.15902344 10.84054687 18.14226562 9.875 18.125 C8.93011719 18.11597656 7.98523438 18.10695313 7.01171875 18.09765625 C4.67422708 18.07404522 2.33723877 18.04111516 0 18 C4.22657765 15.18228157 8.44840173 15.57913421 13.37109375 15.43359375 C15.25129285 15.35453602 17.12719073 15.18434812 19 15 C21.15580306 10.68839387 20.12268117 5.49072469 19 1 C12.73 1 6.46 1 0 1 C0 0.67 0 0.34 0 0 Z " fill="#BBF7DD" transform="translate(259,274)"/>
<path d="M0 0 C6.6 0 13.2 0 20 0 C20 0.33 20 0.66 20 1 C13.73 1 7.46 1 1 1 C1.44633891 7.07416347 1.44633891 7.07416347 1.9284668 13.14550781 C2.14966258 16.64758912 2.25958366 19.31859289 1 22.625 C-2.10621526 24.76052299 -5.1192906 24.16978934 -8.6875 23.75 C-9.38939453 23.68425781 -10.09128906 23.61851562 -10.81445312 23.55078125 C-12.54486164 23.38598044 -14.27278524 23.19545358 -16 23 C-16 22.67 -16 22.34 -16 22 C-15.00097656 21.93941406 -14.00195312 21.87882812 -12.97265625 21.81640625 C-11.68230469 21.73261719 -10.39195312 21.64882813 -9.0625 21.5625 C-7.77472656 21.48128906 -6.48695313 21.40007812 -5.16015625 21.31640625 C-2.13976043 21.35080812 -2.13976043 21.35080812 -1 20 C-0.84344973 18.51361008 -0.74933057 17.02050873 -0.68359375 15.52734375 C-0.64548584 14.71773193 -0.60737793 13.90812012 -0.56811523 13.07397461 C-0.52501221 12.03893799 -0.48190918 11.00390137 -0.4375 9.9375 C-0.293125 6.658125 -0.14875 3.37875 0 0 Z " fill="#44B082" transform="translate(259,292)"/>
<path d="M0 0 C0.33 0 0.66 0 1 0 C1 6.93 1 13.86 1 21 C-5.6 21 -12.2 21 -19 21 C-19 20.67 -19 20.34 -19 20 C-12.97403427 18.9287172 -7.11090483 18.90054585 -1 19 C-1.01160156 18.04738281 -1.02320313 17.09476562 -1.03515625 16.11328125 C-1.04417969 14.85902344 -1.05320313 13.60476563 -1.0625 12.3125 C-1.07410156 11.07113281 -1.08570313 9.82976562 -1.09765625 8.55078125 C-1.01478673 5.53764546 -0.70839449 2.91724661 0 0 Z " fill="#4EBA8C" transform="translate(240,253)"/>
<path d="M0 0 C0.99 0.33 1.98 0.66 3 1 C5.73289293 1.22797562 8.45042204 1.41668187 11.1875 1.5625 C11.93708984 1.60568359 12.68667969 1.64886719 13.45898438 1.69335938 C15.30578375 1.79922685 17.15286834 1.9000976 19 2 C18.67 2.66 18.34 3.32 18 4 C12.39 4 6.78 4 1 4 C1 5.65 1 7.3 1 9 C2.32 9.33 3.64 9.66 5 10 C3.35 10.33 1.7 10.66 0 11 C-1.16461426 7.50615721 -1.13568319 4.66344611 -1 1 C-0.67 0.67 -0.34 0.34 0 0 Z " fill="#3BC193" transform="translate(206,236)"/>
<path d="M0 0 C0.33 0 0.66 0 1 0 C1 4.29 1 8.58 1 13 C2.33675781 13.04898437 3.67351562 13.09796875 5.05078125 13.1484375 C6.80470838 13.22347182 8.55861361 13.29901936 10.3125 13.375 C11.63411133 13.42140625 11.63411133 13.42140625 12.98242188 13.46875 C13.82998047 13.50742187 14.67753906 13.54609375 15.55078125 13.5859375 C16.33106689 13.6173584 17.11135254 13.6487793 17.9152832 13.68115234 C20 14 20 14 23 16 C19.72924117 16.0580476 16.45861476 16.09361165 13.1875 16.125 C12.25873047 16.14175781 11.32996094 16.15851563 10.37304688 16.17578125 C9.48037109 16.18222656 8.58769531 16.18867188 7.66796875 16.1953125 C6.84578857 16.20578613 6.0236084 16.21625977 5.17651367 16.22705078 C3 16 3 16 0 14 C-0.29296875 10.7421875 -0.29296875 10.7421875 -0.1875 6.875 C-0.16042969 5.59367187 -0.13335937 4.31234375 -0.10546875 2.9921875 C-0.07066406 2.00476563 -0.03585938 1.01734375 0 0 Z " fill="#A7E6CB" transform="translate(218,276)"/>
<path d="M0 0 C0.66 0.66 1.32 1.32 2 2 C-2.14353646 7.62337091 -2.14353646 7.62337091 -6 9 C-8.79084219 9.16858166 -11.47771993 9.23284241 -14.265625 9.1953125 C-15.05902283 9.1924826 -15.85242065 9.18965271 -16.66986084 9.18673706 C-19.19672917 9.17556779 -21.72323932 9.15046944 -24.25 9.125 C-25.9661407 9.11496598 -27.68228698 9.10584087 -29.3984375 9.09765625 C-33.59909574 9.07563914 -37.7994872 9.04113187 -42 9 C-42 8.67 -42 8.34 -42 8 C-30.45 8 -18.9 8 -7 8 C-7 7.34 -7 6.68 -7 6 C-5.68 6 -4.36 6 -3 6 C-3 5.01 -3 4.02 -3 3 C-2.01 3 -1.02 3 0 3 C0 2.01 0 1.02 0 0 Z " fill="#58A684" transform="translate(313,316)"/>
<path d="M0 0 C-0.33 1.65 -0.66 3.3 -1 5 C-1.495 3.02 -1.495 3.02 -2 1 C-13.22 1 -24.44 1 -36 1 C-36 0.67 -36 0.34 -36 0 C-31.67692456 -0.16825313 -27.35365008 -0.32874187 -23.0300293 -0.48217773 C-21.56055024 -0.53540449 -20.09114516 -0.59071749 -18.62182617 -0.64819336 C-16.50455674 -0.73064713 -14.38713092 -0.80548711 -12.26953125 -0.87890625 C-10.36071167 -0.94960327 -10.36071167 -0.94960327 -8.41333008 -1.02172852 C-5.42550759 -1.00270869 -2.88808168 -0.71659169 0 0 Z " fill="#4EAC83" transform="translate(295,202)"/>
<path d="M0 0 C0.5625 1.9375 0.5625 1.9375 1 4 C0 5 0 5 -1.94946289 5.11352539 C-2.7821167 5.10828857 -3.61477051 5.10305176 -4.47265625 5.09765625 C-5.37177734 5.09443359 -6.27089844 5.09121094 -7.19726562 5.08789062 C-8.14279297 5.07951172 -9.08832031 5.07113281 -10.0625 5.0625 C-11.01189453 5.05798828 -11.96128906 5.05347656 -12.93945312 5.04882812 C-15.29303065 5.0370011 -17.64648477 5.02052025 -20 5 C-15.77342235 2.18228157 -11.55159827 2.57913421 -6.62890625 2.43359375 C-4.74870715 2.35453602 -2.87280927 2.18434812 -1 2 C-0.67 1.34 -0.34 0.68 0 0 Z " fill="#B0EBD0" transform="translate(279,287)"/>
<path d="M0 0 C1.03125 0.00322266 2.0625 0.00644531 3.125 0.00976562 C4.74535156 0.02233398 4.74535156 0.02233398 6.3984375 0.03515625 C8.03039062 0.04192383 8.03039062 0.04192383 9.6953125 0.04882812 C12.38807539 0.06063849 15.08072938 0.07710847 17.7734375 0.09765625 C17.7734375 0.42765625 17.7734375 0.75765625 17.7734375 1.09765625 C7.3784375 1.59265625 7.3784375 1.59265625 -3.2265625 2.09765625 C-3.5565625 3.08765625 -3.8865625 4.07765625 -4.2265625 5.09765625 C-5.2165625 4.76765625 -6.2065625 4.43765625 -7.2265625 4.09765625 C-7.2265625 3.10765625 -7.2265625 2.11765625 -7.2265625 1.09765625 C-4.66933021 -0.1809599 -2.85919148 -0.01570984 0 0 Z " fill="#49AF83" transform="translate(211.2265625,219.90234375)"/>
<path d="M0 0 C0.87454834 0.00523682 1.74909668 0.01047363 2.65014648 0.01586914 C3.59438477 0.0190918 4.53862305 0.02231445 5.51147461 0.02563477 C6.50469727 0.03401367 7.49791992 0.04239258 8.52124023 0.05102539 C9.51833008 0.05553711 10.51541992 0.06004883 11.54272461 0.06469727 C14.01478872 0.07652532 16.48673541 0.0930069 18.95874023 0.11352539 C18.95874023 0.44352539 18.95874023 0.77352539 18.95874023 1.11352539 C17.68256836 1.17411133 16.40639648 1.23469727 15.09155273 1.29711914 C13.42227008 1.38152107 11.75299986 1.46616925 10.08374023 1.55102539 C9.24198242 1.5903418 8.40022461 1.6296582 7.53295898 1.67016602 C6.72729492 1.71206055 5.92163086 1.75395508 5.09155273 1.79711914 C3.97611084 1.85210571 3.97611084 1.85210571 2.83813477 1.90820312 C0.87009712 2.01308404 0.87009712 2.01308404 -1.04125977 3.11352539 C-2.1747651 5.13022366 -2.1747651 5.13022366 -3.04125977 7.11352539 C-3.08380333 5.11397793 -3.08206759 3.11310903 -3.04125977 1.11352539 C-2.04125977 0.11352539 -2.04125977 0.11352539 0 0 Z " fill="#C2F7E0" transform="translate(222.041259765625,273.886474609375)"/>
<path d="M0 0 C0.33 0 0.66 0 1 0 C1.21183811 3.106959 1.29447008 5.36644316 -0.03125 8.21875 C-2 10 -2 10 -5.57421875 10.171875 C-6.94732363 10.05247458 -8.31865401 9.91104071 -9.6875 9.75 C-10.38939453 9.68425781 -11.09128906 9.61851562 -11.81445312 9.55078125 C-13.54486164 9.38598044 -15.27278524 9.19545358 -17 9 C-17 8.67 -17 8.34 -17 8 C-16.01257813 7.95101563 -15.02515625 7.90203125 -14.0078125 7.8515625 C-12.72648438 7.77679688 -11.44515625 7.70203125 -10.125 7.625 C-8.21074219 7.52058594 -8.21074219 7.52058594 -6.2578125 7.4140625 C-2.91938301 7.32758894 -2.91938301 7.32758894 -1 5 C-0.35232207 2.42938689 -0.35232207 2.42938689 0 0 Z " fill="#38B17D" transform="translate(260,306)"/>
<path d="M0 0 C0.99 0.33 1.98 0.66 3 1 C1.7934375 2.051875 1.7934375 2.051875 0.5625 3.125 C-2.23433811 6.26291593 -2.71308751 7.88758763 -3 12 C-3.33 12 -3.66 12 -4 12 C-4.33292585 7.75519536 -4.43885872 5.64457375 -2 2.0625 C-1.34 1.381875 -0.68 0.70125 0 0 Z " fill="#61BB93" transform="translate(189,180)"/>
<path d="M0 0 C2.40928735 0.96371494 3.76007009 1.65210163 5.25 3.8125 C6.11081611 6.32321365 6.14647297 8.36348649 6 11 C3.21249856 9.60624928 3.10733713 7.83755139 2 5 C1.34 4.34 0.68 3.68 0 3 C0 2.01 0 1.02 0 0 Z " fill="#80C8AA" transform="translate(310,180)"/>
<path d="M0 0 C0.66 0.66 1.32 1.32 2 2 C-2.27171492 7.79732739 -2.27171492 7.79732739 -6 9 C-6.99 8.67 -7.98 8.34 -9 8 C-8.34 8 -7.68 8 -7 8 C-7 7.34 -7 6.68 -7 6 C-5.68 6 -4.36 6 -3 6 C-3 5.01 -3 4.02 -3 3 C-2.01 3 -1.02 3 0 3 C0 2.01 0 1.02 0 0 Z " fill="#6AC29C" transform="translate(313,316)"/>
</svg>
